<svg width="100" height="100" viewBox="0 0 100 100" fill="none" xmlns="http://www.w3.org/2000/svg">
<path d="M0.237522 100L7.26669 74.3208C2.92919 66.8042 0.650022 58.2833 0.654189 49.5458C0.666689 22.2292 22.8959 0 50.2084 0C63.4625 0.00416667 75.9042 5.16667 85.2625 14.5333C94.6167 23.9 99.7667 36.35 99.7625 49.5917C99.75 76.9125 77.5209 99.1417 50.2084 99.1417C41.9167 99.1375 33.7459 97.0583 26.5084 93.1083L0.237522 100ZM27.725 84.1375C34.7084 88.2833 41.375 90.7667 50.1917 90.7708C72.8917 90.7708 91.3834 72.2958 91.3959 49.5833C91.4042 26.825 73 8.375 50.225 8.36667C27.5084 8.36667 9.02919 26.8417 9.02086 49.55C9.01669 58.8208 11.7334 65.7625 16.2959 73.025L12.1334 88.225L27.725 84.1375ZM75.1709 61.3708C74.8625 60.8542 74.0375 60.5458 72.7959 59.925C71.5584 59.3042 65.4709 56.3083 64.3334 55.8958C63.2 55.4833 62.375 55.275 61.5459 56.5167C60.7209 57.7542 58.3459 60.5458 57.625 61.3708C56.9042 62.1958 56.1792 62.3 54.9417 61.6792C53.7042 61.0583 49.7125 59.7542 44.9834 55.5333C41.3042 52.25 38.8167 48.1958 38.0959 46.9542C37.375 45.7167 38.0209 45.0458 38.6375 44.4292C39.1959 43.875 39.875 42.9833 40.4959 42.2583C41.125 41.5417 41.3292 41.025 41.7459 40.1958C42.1584 39.3708 41.9542 38.6458 41.6417 38.025C41.3292 37.4083 38.8542 31.3125 37.825 28.8333C36.8167 26.4208 35.7959 26.7458 35.0375 26.7083L32.6625 26.6667C31.8375 26.6667 30.4959 26.975 29.3625 28.2167C28.2292 29.4583 25.0292 32.45 25.0292 38.5458C25.0292 44.6417 29.4667 50.5292 30.0834 51.3542C30.7042 52.1792 38.8125 64.6875 51.2334 70.05C54.1875 71.325 56.4959 72.0875 58.2917 72.6583C61.2584 73.6 63.9584 73.4667 66.0917 73.15C68.4709 72.7958 73.4167 70.1542 74.45 67.2625C75.4834 64.3667 75.4834 61.8875 75.1709 61.3708Z" fill="#9A0000"/>
</svg>
